<svg width="52" height="21" viewBox="0 0 52 21" fill="none" xmlns="http://www.w3.org/2000/svg">
<path fill-rule="evenodd" clip-rule="evenodd" d="M37.9647 0.851644C38.1305 0.719902 38.3276 0.615378 38.5445 0.544061C38.7614 0.472744 38.9939 0.436035 39.2287 0.436035C39.4635 0.436035 39.6961 0.472744 39.913 0.544061C40.1299 0.615378 40.3269 0.719902 40.4927 0.851644L51.2047 9.33961C51.371 9.47102 51.5029 9.62713 51.5929 9.799C51.6829 9.97087 51.7292 10.1551 51.7292 10.3412C51.7292 10.5273 51.6829 10.7115 51.5929 10.8834C51.5029 11.0553 51.371 11.2114 51.2047 11.3428L40.4927 19.8307C40.1575 20.0964 39.7028 20.2456 39.2287 20.2456C38.7546 20.2456 38.2999 20.0964 37.9647 19.8307C37.6295 19.5651 37.4411 19.2048 37.4411 18.8292C37.4411 18.4535 37.6295 18.0932 37.9647 17.8276L47.4163 10.3412L37.9647 2.8548C37.7984 2.7234 37.6665 2.56729 37.5765 2.39542C37.4865 2.22355 37.4402 2.0393 37.4402 1.85322C37.4402 1.66715 37.4865 1.4829 37.5765 1.31103C37.6665 1.13916 37.7984 0.983054 37.9647 0.851644Z" fill="black"/>
<path fill-rule="evenodd" clip-rule="evenodd" d="M0 10.3411C0 9.96597 0.188096 9.60623 0.52291 9.341C0.857723 9.07576 1.31183 8.92676 1.78532 8.92676H48.1555C48.629 8.92676 49.0831 9.07576 49.4179 9.341C49.7527 9.60623 49.9408 9.96597 49.9408 10.3411C49.9408 10.7162 49.7527 11.0759 49.4179 11.3411C49.0831 11.6064 48.629 11.7554 48.1555 11.7554H1.78532C1.31183 11.7554 0.857723 11.6064 0.52291 11.3411C0.188096 11.0759 0 10.7162 0 10.3411Z" fill="black"/>
</svg>
