<svg width="30" height="23" viewBox="0 0 30 23" fill="none" xmlns="http://www.w3.org/2000/svg">
<path d="M28.4153 9.71222C29.5077 9.71222 29.9638 8.58465 29.0764 8.06488L15.5745 0.174675C15.3817 0.0611839 15.1489 0 14.9099 0C14.6709 0 14.438 0.0611839 14.2452 0.174675L0.743374 8.06488C-0.144022 8.5818 0.31205 9.71222 1.40804 9.71222H3.59647V20.3347H1.05096C0.895398 20.3347 0.768122 20.437 0.768122 20.562V22.0389C0.768122 22.1639 0.895398 22.2661 1.05096 22.2661H28.7688C28.9244 22.2661 29.0517 22.1639 29.0517 22.0389V20.562C29.0517 20.437 28.9244 20.3347 28.7688 20.3347H26.2233V9.71222H28.4153ZM10.2785 20.3347H6.14199V9.71222H10.2785V20.3347ZM16.9604 20.3347H12.824V9.71222H16.9604V20.3347ZM23.6778 20.3347H19.506V9.71222H23.6778V20.3347Z" fill="#0D3883"/>
</svg>
