<svg width="172" height="40" viewBox="0 0 172 40" fill="none" xmlns="http://www.w3.org/2000/svg">
<g clip-path="url(#clip0_2_701)">
<path d="M59.033 14.3989C57.3688 14.3874 55.7294 14.8022 54.2709 15.6037C52.8124 16.4053 51.5834 17.5669 50.701 18.9779V2.80889C50.7029 2.43854 50.6306 2.07156 50.4884 1.72963C50.3461 1.3877 50.1367 1.07776 49.8726 0.818132C49.6085 0.558501 49.295 0.354447 48.9507 0.218029C48.6064 0.0816103 48.2382 0.0155963 47.868 0.023888C47.5003 0.0166825 47.1349 0.0837955 46.7937 0.221204C46.4526 0.358612 46.1427 0.563487 45.8827 0.823548C45.6226 1.08361 45.4177 1.3935 45.2803 1.73465C45.1429 2.0758 45.0758 2.44118 45.083 2.80889V36.7979C45.083 37.5429 45.3789 38.2574 45.9057 38.7842C46.4325 39.3109 47.147 39.6069 47.892 39.6069C48.637 39.6069 49.3515 39.3109 49.8782 38.7842C50.405 38.2574 50.701 37.5429 50.701 36.7979V35.5469C51.6315 36.8911 52.878 37.9862 54.3308 38.7359C55.7836 39.4857 57.3982 39.8672 59.033 39.8469C64.816 39.8469 70.363 35.2679 70.363 27.1719V27.0739C70.362 18.9309 64.768 14.3989 59.033 14.3989ZM64.674 27.1689C64.674 31.9839 61.535 34.9819 57.687 34.9819C53.887 34.9819 50.559 31.8429 50.559 27.1689V27.0739C50.559 22.3999 53.887 19.2609 57.687 19.2609C61.487 19.2609 64.674 22.3529 64.674 27.0739V27.1689Z" fill="black"/>
<path d="M87.522 14.398C85.8213 14.36 84.1301 14.6623 82.5479 15.2871C80.9656 15.9118 79.5241 16.8465 78.3081 18.0361C77.0921 19.2257 76.1261 20.6464 75.4669 22.2146C74.8076 23.7828 74.4683 25.4669 74.469 27.168V27.262C74.4686 28.9485 74.8059 30.6179 75.4611 32.1718C76.1163 33.7258 77.0761 35.1328 78.2838 36.3098C79.4916 37.4868 80.9229 38.41 82.4932 39.0249C84.0636 39.6398 85.7411 39.934 87.427 39.89C89.1275 39.934 90.8197 39.6378 92.4041 39.0187C93.9886 38.3997 95.4334 37.4704 96.6537 36.2852C97.874 35.1001 98.8453 33.6832 99.5104 32.1175C100.176 30.5519 100.521 28.8691 100.527 27.168V27.074C100.531 25.3804 100.195 23.7031 99.5386 22.1418C98.8823 20.5804 97.9192 19.1668 96.7063 17.9846C95.4935 16.8024 94.0556 15.8758 92.4779 15.2597C90.9003 14.6437 89.215 14.3506 87.522 14.398V14.398ZM94.934 27.262C94.934 31.462 92.054 34.98 87.522 34.98C86.5153 34.9697 85.5209 34.758 84.5973 34.3572C83.6738 33.9565 82.8398 33.3749 82.1447 32.6467C81.4495 31.9185 80.9071 31.0585 80.5496 30.1174C80.1921 29.1763 80.0266 28.1731 80.063 27.167V27.073C80.063 22.824 82.919 19.307 87.427 19.307C88.4409 19.3137 89.4431 19.5243 90.374 19.9262C91.3049 20.328 92.1455 20.913 92.8458 21.6463C93.546 22.3796 94.0917 23.2462 94.4502 24.1946C94.8088 25.143 94.973 26.1539 94.933 27.167L94.934 27.262Z" fill="black"/>
<path d="M116.862 14.398C115.161 14.36 113.47 14.6623 111.888 15.2871C110.306 15.9118 108.864 16.8465 107.648 18.0361C106.432 19.2257 105.466 20.6464 104.807 22.2146C104.148 23.7828 103.808 25.4669 103.809 27.168V27.262C103.809 28.9485 104.146 30.6179 104.801 32.1718C105.456 33.7258 106.416 35.1328 107.624 36.3098C108.832 37.4868 110.263 38.41 111.833 39.0249C113.404 39.6398 115.081 39.934 116.767 39.89C118.467 39.934 120.16 39.6378 121.744 39.0187C123.329 38.3997 124.773 37.4704 125.994 36.2852C127.214 35.1001 128.185 33.6832 128.85 32.1175C129.516 30.5519 129.861 28.8691 129.867 27.168V27.074C129.871 25.3804 129.535 23.7031 128.879 22.1418C128.222 20.5804 127.259 19.1668 126.046 17.9846C124.833 16.8024 123.396 15.8758 121.818 15.2597C120.24 14.6437 118.555 14.3506 116.862 14.398V14.398ZM124.274 27.262C124.274 31.462 121.394 34.98 116.862 34.98C115.855 34.9697 114.861 34.758 113.937 34.3572C113.014 33.9565 112.18 33.3749 111.485 32.6467C110.789 31.9185 110.247 31.0585 109.89 30.1174C109.532 29.1763 109.367 28.1731 109.403 27.167V27.073C109.403 22.824 112.259 19.307 116.767 19.307C117.781 19.3137 118.783 19.5243 119.714 19.9262C120.645 20.328 121.485 20.913 122.186 21.6463C122.886 22.3796 123.432 23.2462 123.79 24.1946C124.149 25.143 124.313 26.1539 124.273 27.167L124.274 27.262Z" fill="black"/>
<path d="M144.714 24.9021C141.858 23.9811 139.214 23.2501 139.214 21.4321V21.3381C139.214 19.9451 140.465 18.9301 142.637 18.9301C144.651 19.047 146.613 19.6201 148.373 20.6061C148.712 20.7959 149.094 20.8935 149.482 20.8891C149.784 20.8979 150.085 20.8456 150.366 20.7354C150.648 20.6252 150.904 20.4594 151.12 20.2479C151.336 20.0363 151.507 19.7834 151.623 19.5042C151.739 19.2251 151.798 18.9254 151.795 18.6231C151.797 18.1776 151.672 17.7408 151.433 17.3643C151.195 16.9879 150.854 16.6877 150.45 16.4991C148.088 15.2355 145.458 14.5555 142.779 14.5161C137.917 14.5161 134.069 17.3481 134.069 21.9751V22.0691C134.069 26.7431 138.105 28.2301 141.717 29.2441C144.597 30.1171 147.17 30.7781 147.17 32.6671V32.7611C147.17 34.3901 145.777 35.4051 143.37 35.4051C140.844 35.3278 138.397 34.5068 136.336 33.0451C135.972 32.8315 135.558 32.7177 135.136 32.7151C134.837 32.7112 134.541 32.7672 134.264 32.8797C133.988 32.9922 133.736 33.1589 133.525 33.3701C133.314 33.5813 133.147 33.8327 133.035 34.1094C132.922 34.386 132.866 34.6825 132.87 34.9811C132.854 35.3699 132.945 35.7556 133.132 36.0967C133.319 36.4379 133.596 36.7215 133.932 36.9171C136.675 38.7897 139.911 39.8082 143.232 39.8441C148.332 39.8441 152.296 37.2951 152.296 32.1491V32.0551C152.314 27.6401 148.278 26.0111 144.714 24.9021Z" fill="black"/>
<path d="M169.639 34.627C169.178 34.6997 168.713 34.7471 168.246 34.769C166.358 34.769 165.246 33.896 165.246 31.724V19.686H167.984C168.61 19.686 169.21 19.4374 169.653 18.9947C170.096 18.552 170.345 17.9516 170.345 17.3255C170.345 16.6995 170.096 16.0991 169.653 15.6564C169.21 15.2137 168.61 14.965 167.984 14.965H165.246V9.18205C165.246 8.43705 164.95 7.72257 164.423 7.19578C163.896 6.66899 163.182 6.37305 162.437 6.37305C161.692 6.37305 160.978 6.66899 160.451 7.19578C159.924 7.72257 159.628 8.43705 159.628 9.18205V14.897H158.707C158.077 14.9099 157.477 15.1692 157.036 15.6193C156.595 16.0694 156.348 16.6744 156.348 17.3045C156.348 17.9347 156.595 18.5397 157.036 18.9898C157.477 19.4399 158.077 19.6992 158.707 19.712H159.628V32.573C159.628 37.931 162.555 39.749 166.662 39.749C167.974 39.7608 169.277 39.5369 170.509 39.088C170.939 38.9067 171.308 38.6055 171.571 38.2204C171.835 37.8353 171.982 37.3825 171.996 36.916C171.983 36.3012 171.728 35.7162 171.287 35.2877C170.846 34.8593 170.254 34.6219 169.639 34.627V34.627Z" fill="black"/>
<path d="M34.957 14.6339C34.5867 14.632 34.2198 14.7042 33.878 14.8465C33.5361 14.9887 33.2262 15.198 32.9666 15.462C32.707 15.726 32.5029 16.0393 32.3664 16.3835C32.2299 16.7277 32.1638 17.0958 32.172 17.4659V26.5529C32.219 27.6389 32.172 31.2969 30.472 33.0679C30.0546 33.4774 29.5542 33.7926 29.0045 33.9922C28.4549 34.1918 27.8689 34.2712 27.286 34.2249C25.9538 34.3467 24.6222 33.9866 23.533 33.2099C23.1351 32.8103 22.8215 32.3349 22.6108 31.8118C22.4 31.2888 22.2964 30.7288 22.306 30.1649C22.141 27.0259 21.881 22.4699 21.881 22.4699H21.857C21.385 17.5839 18.316 14.4209 13.242 14.4209C11.7098 14.3993 10.1985 14.7776 8.85731 15.5185C7.51607 16.2595 6.39128 17.3374 5.59398 18.6459V2.78494C5.59203 2.41579 5.5171 2.05068 5.3735 1.7106C5.22991 1.37052 5.02049 1.0622 4.75728 0.80336C4.49408 0.544524 4.18229 0.34029 3.83986 0.202407C3.49742 0.0645241 3.13111 -0.00428485 2.76198 -6.08148e-05C2.39706 -0.00100967 2.03559 0.0705482 1.69856 0.210458C1.36152 0.350367 1.05564 0.55584 0.798677 0.814945C0.541712 1.07405 0.338783 1.38162 0.201673 1.71981C0.0645633 2.05799 -0.0039946 2.42004 -1.96466e-05 2.78494V36.7999C-0.00335616 37.1666 0.0664017 37.5302 0.20518 37.8696C0.343957 38.209 0.548973 38.5174 0.808251 38.7767C1.06753 39.0359 1.37587 39.241 1.71527 39.3797C2.05467 39.5185 2.41832 39.5883 2.78498 39.5849C3.15524 39.5932 3.5234 39.5272 3.86771 39.3908C4.21202 39.2544 4.52549 39.0503 4.7896 38.7907C5.05371 38.5311 5.26309 38.2211 5.40537 37.8792C5.54765 37.5373 5.61994 37.1703 5.61798 36.7999V25.5389C5.61798 21.7389 7.88398 19.4729 11.118 19.4729C14.418 19.4729 16.311 21.6209 16.334 25.3729C16.405 26.8359 16.499 28.8659 16.594 30.4009C16.6116 31.7195 16.8969 33.0207 17.4325 34.2257C17.9682 35.4307 18.743 36.5144 19.71 37.4109C21.5961 39.0593 24.0263 39.9501 26.531 39.9109C26.743 39.9109 27.239 39.9349 27.475 39.9349C28.7856 39.979 30.0909 39.7476 31.3065 39.2556C32.5221 38.7636 33.6209 38.0221 34.532 37.0789C36.6776 34.6547 37.8393 31.5159 37.789 28.2789V28.2789V17.4429C37.7875 17.0725 37.7131 16.706 37.57 16.3644C37.4269 16.0227 37.2179 15.7126 36.9549 15.4518C36.6919 15.1909 36.3801 14.9844 36.0373 14.8441C35.6945 14.7038 35.3274 14.6324 34.957 14.6339V14.6339Z" fill="black"/>
<path d="M34.957 5.59399C33.163 5.59399 31.77 6.65599 31.77 8.33199V8.61499C31.8735 9.38678 32.2535 10.0948 32.8396 10.6075C33.4256 11.1202 34.1778 11.4029 34.9565 11.4029C35.7352 11.4029 36.4874 11.1202 37.0735 10.6075C37.6595 10.0948 38.0396 9.38678 38.143 8.61499V8.33199C38.143 6.65599 36.75 5.59399 34.957 5.59399Z" fill="#2D3436"/>
</g>
<defs>
<clipPath id="clip0_2_701">
<rect width="172" height="39.937" fill="white"/>
</clipPath>
</defs>
</svg>
