<svg width="33" height="28" viewBox="0 0 33 28" fill="none" xmlns="http://www.w3.org/2000/svg">
<path d="M15.8818 27.5779C16.4023 27.7981 17.0555 27.7967 17.576 27.5765C31.76 21.5389 32.7673 9.74288 32.7549 6.38882C32.7535 6.11924 32.653 5.85583 32.4656 5.63084C32.2782 5.40586 32.0121 5.22906 31.6998 5.1221L17.4486 0.11977C17.2218 0.0405543 16.9766 -0.0002405 16.7287 1.06658e-06C16.4809 0.000242633 16.2358 0.0415152 16.0093 0.121173L1.8572 5.12351C1.54951 5.23052 1.28713 5.40536 1.10132 5.62721C0.915504 5.84906 0.814092 6.10856 0.809164 6.37479C0.748972 9.71202 1.59696 21.5333 15.8818 27.5779ZM10.9001 11.5006L14.9595 14.7172L22.5595 8.695L25.0628 10.6785L14.9595 18.6842L8.39683 13.4841L10.9001 11.5006Z" fill="white"/>
</svg>
