<svg width="112" height="214" viewBox="0 0 112 214" fill="none" xmlns="http://www.w3.org/2000/svg">
<circle cx="107.637" cy="3.52401" r="3.52358" transform="rotate(90 107.637 3.52401)" fill="#EF4358"/>
<circle cx="107.637" cy="55.2028" r="3.52358" transform="rotate(90 107.637 55.2028)" fill="#EF4358"/>
<circle cx="107.637" cy="106.882" r="3.52358" transform="rotate(90 107.637 106.882)" fill="#EF4358"/>
<circle cx="107.637" cy="158.561" r="3.52358" transform="rotate(90 107.637 158.561)" fill="#EF4358"/>
<circle cx="107.637" cy="210.24" r="3.52358" transform="rotate(90 107.637 210.24)" fill="#EF4358"/>
<circle cx="55.9574" cy="3.52358" r="3.52358" transform="rotate(90 55.9574 3.52358)" fill="#EF4358"/>
<circle cx="55.9574" cy="55.2028" r="3.52358" transform="rotate(90 55.9574 55.2028)" fill="#EF4358"/>
<circle cx="55.9574" cy="106.882" r="3.52358" transform="rotate(90 55.9574 106.882)" fill="#EF4358"/>
<circle cx="55.9574" cy="158.561" r="3.52358" transform="rotate(90 55.9574 158.561)" fill="#EF4358"/>
<circle cx="55.9574" cy="210.24" r="3.52358" transform="rotate(90 55.9574 210.24)" fill="#EF4358"/>
<circle cx="4.27818" cy="3.52358" r="3.52358" transform="rotate(90 4.27818 3.52358)" fill="#EF4358"/>
<circle cx="4.27818" cy="55.2028" r="3.52358" transform="rotate(90 4.27818 55.2028)" fill="#EF4358"/>
<circle cx="4.27818" cy="106.882" r="3.52358" transform="rotate(90 4.27818 106.882)" fill="#EF4358"/>
<circle cx="4.27818" cy="158.561" r="3.52358" transform="rotate(90 4.27818 158.561)" fill="#EF4358"/>
<circle cx="4.27818" cy="210.24" r="3.52358" transform="rotate(90 4.27818 210.24)" fill="#EF4358"/>
</svg>
