<?xml version="1.0" standalone="no"?>
<!DOCTYPE svg PUBLIC "-//W3C//DTD SVG 20010904//EN"
 "http://www.w3.org/TR/2001/REC-SVG-20010904/DTD/svg10.dtd">
<svg version="1.0" xmlns="http://www.w3.org/2000/svg"
 width="700.000000pt" height="700.000000pt" viewBox="0 0 700.000000 700.000000"
 preserveAspectRatio="xMidYMid meet">
<metadata>
Created by potrace 1.14, written by Peter Selinger 2001-2017
</metadata>
<g transform="translate(0.000000,700.000000) scale(0.100000,-0.100000)"
fill="#000000" stroke="none">
<path d="M3299 6936 c-2 -2 -44 -6 -94 -10 -49 -3 -101 -8 -115 -10 -14 -3
-45 -7 -70 -10 -44 -6 -185 -31 -225 -40 -11 -2 -42 -10 -70 -16 -27 -6 -57
-13 -65 -15 -87 -18 -303 -89 -435 -142 -304 -123 -552 -265 -815 -466 -58
-45 -107 -83 -110 -86 -3 -3 -40 -37 -83 -75 -61 -54 -199 -190 -272 -270
-168 -181 -377 -488 -500 -736 -140 -280 -256 -612 -304 -870 -6 -30 -12 -64
-14 -75 -3 -11 -8 -45 -12 -75 -7 -62 -11 -88 -19 -145 -24 -170 -25 -658 -1
-784 1 -9 6 -38 9 -66 30 -233 92 -486 177 -725 27 -76 39 -104 69 -175 128
-299 332 -630 527 -857 154 -179 288 -310 484 -473 13 -11 69 -52 124 -92 55
-40 105 -77 112 -83 7 -5 15 -10 18 -10 4 0 25 -13 48 -29 98 -67 288 -170
427 -231 96 -43 141 -62 150 -65 3 -1 12 -4 20 -8 544 -214 1186 -283 1780
-192 14 2 45 7 70 10 80 12 292 63 415 100 336 102 706 285 990 489 191 137
440 363 599 545 117 133 260 333 355 496 29 50 56 97 62 105 15 26 139 279
139 286 0 3 7 20 15 37 25 54 81 208 105 287 12 41 26 86 31 100 29 85 85 368
104 520 27 228 28 632 0 840 -2 14 -5 43 -8 65 -30 234 -116 558 -212 800 -50
127 -165 357 -241 485 -198 331 -406 576 -739 869 -245 216 -677 467 -1005
586 -172 62 -403 128 -490 141 -19 3 -42 7 -50 9 -29 9 -185 34 -250 40 -36 4
-76 9 -90 11 -33 6 -535 15 -541 10z"/>
</g>
</svg>
